<svg width="25" height="24" viewBox="0 0 25 24" fill="none" xmlns="http://www.w3.org/2000/svg">
<path d="M16.9375 3C15.0016 3 13.3066 3.8325 12.25 5.23969C11.1934 3.8325 9.49844 3 7.5625 3C6.02146 3.00174 4.54404 3.61468 3.45436 4.70436C2.36468 5.79404 1.75174 7.27146 1.75 8.8125C1.75 15.375 11.4803 20.6869 11.8947 20.9062C12.0039 20.965 12.126 20.9958 12.25 20.9958C12.374 20.9958 12.4961 20.965 12.6053 20.9062C13.0197 20.6869 22.75 15.375 22.75 8.8125C22.7483 7.27146 22.1353 5.79404 21.0456 4.70436C19.956 3.61468 18.4785 3.00174 16.9375 3ZM12.25 19.3875C10.5381 18.39 3.25 13.8459 3.25 8.8125C3.25149 7.66921 3.70632 6.57317 4.51475 5.76475C5.32317 4.95632 6.41921 4.50149 7.5625 4.5C9.38594 4.5 10.9169 5.47125 11.5562 7.03125C11.6128 7.16881 11.7089 7.28646 11.8324 7.36926C11.9559 7.45207 12.1013 7.49627 12.25 7.49627C12.3987 7.49627 12.5441 7.45207 12.6676 7.36926C12.7911 7.28646 12.8872 7.16881 12.9437 7.03125C13.5831 5.46844 15.1141 4.5 16.9375 4.5C18.0808 4.50149 19.1768 4.95632 19.9853 5.76475C20.7937 6.57317 21.2485 7.66921 21.25 8.8125C21.25 13.8384 13.96 18.3891 12.25 19.3875Z" fill="#A4A4A4"/>
</svg>
